<svg width="80" height="80" viewBox="0 0 80 80" fill="none" xmlns="http://www.w3.org/2000/svg">
    <g clip-path="url(#clip0_8161_41800)">
        <path
            d="M40.9055 0H39.0945C37.3855 0 36 1.38548 36 3.09455V12.9055C36 14.6145 37.3855 16 39.0945 16H40.9055C42.6145 16 44 14.6145 44 12.9055V3.09455C44 1.38548 42.6145 0 40.9055 0Z"
            fill="#FFD700" />
        <path opacity="0.9"
            d="M20.7725 4.91471L19.2294 5.80562C17.7424 6.66417 17.2329 8.56567 18.0914 10.0527L22.9823 18.524C23.8409 20.0111 25.7424 20.5206 27.2294 19.662L28.7725 18.7711C30.2596 17.9126 30.7691 16.0111 29.9105 14.524L25.0196 6.05272C24.1611 4.56567 22.2596 4.05616 20.7725 4.91471Z"
            fill="#FFD700" />
        <path opacity="0.7"
            d="M19.6619 27.2255L18.771 28.7709C17.9128 30.2582 16.011 30.7673 14.5273 29.9091L6.05459 25.0182C4.56732 24.16 4.05823 22.2582 4.91641 20.7745L5.80732 19.2291C6.6655 17.7418 8.56732 17.2327 10.051 18.0909L18.5237 22.9818C20.011 23.84 20.52 25.7418 19.6619 27.2255Z"
            fill="#FFD700" />
        <path opacity="0.6"
            d="M0 39.0945L0 40.9055C0 42.6145 1.38548 44 3.09455 44H12.9055C14.6145 44 16 42.6145 16 40.9055V39.0945C16 37.3855 14.6145 36 12.9055 36H3.09455C1.38548 36 0 37.3855 0 39.0945Z"
            fill="#FFD700" />
        <path opacity="0.45"
            d="M4.91099 59.2274L5.8019 60.7705C6.66045 62.2575 8.56194 62.767 10.049 61.9085L18.5203 57.0176C20.0074 56.159 20.5169 54.2575 19.6583 52.7705L18.7674 51.2274C17.9088 49.7403 16.0074 49.2308 14.5203 50.0894L6.049 54.9803C4.56194 55.8388 4.05244 57.7403 4.91099 59.2274Z"
            fill="#FFD700" />
        <path opacity="0.4"
            d="M19.2311 74.1945L20.7742 75.0854C22.2613 75.944 24.1628 75.4345 25.0213 73.9474L29.9123 65.4761C30.7708 63.9891 30.2613 62.0876 28.7742 61.229L27.2311 60.3381C25.7441 59.4796 23.8426 59.9891 22.984 61.4761L18.0931 69.9474C17.2346 71.4345 17.7441 73.336 19.2311 74.1945Z"
            fill="#FFD700" />
        <path opacity="0.35"
            d="M39.0945 80H40.9055C42.6145 80 44 78.6145 44 76.9055V67.0945C44 65.3855 42.6145 64 40.9055 64H39.0945C37.3855 64 36 65.3855 36 67.0945V76.9055C36 78.6145 37.3855 80 39.0945 80Z"
            fill="#FFD700" />
        <path opacity="0.3"
            d="M59.2275 75.0891L60.7706 74.1982C62.2576 73.3396 62.7671 71.4381 61.9086 69.9511L57.0177 61.4798C56.1591 59.9927 54.2576 59.4832 52.7706 60.3418L51.2275 61.2327C49.7404 62.0912 49.2309 63.9927 50.0895 65.4798L54.9804 73.9511C55.8389 75.4381 57.7404 75.9476 59.2275 75.0891Z"
            fill="#FFD700" />
        <path opacity="0.25"
            d="M74.1944 60.7689L75.0853 59.2258C75.9439 57.7387 75.4344 55.8372 73.9473 54.9787L65.476 50.0877C63.989 49.2292 62.0875 49.7387 61.2289 51.2258L60.338 52.7689C59.4795 54.2559 59.989 56.1574 61.476 57.016L69.9473 61.9069C71.4344 62.7654 73.3359 62.2559 74.1944 60.7689Z"
            fill="#FFD700" />
        <path opacity="0.2"
            d="M80 40.9055V39.0945C80 37.3855 78.6145 36 76.9055 36H67.0945C65.3855 36 64 37.3855 64 39.0945V40.9055C64 42.6145 65.3855 44 67.0945 44H76.9055C78.6145 44 80 42.6145 80 40.9055Z"
            fill="#FFD700" />
        <path opacity="0.15"
            d="M75.0853 20.7725L74.1944 19.2294C73.3359 17.7423 71.4344 17.2328 69.9473 18.0914L61.476 22.9823C59.989 23.8408 59.4795 25.7423 60.338 27.2294L61.2289 28.7725C62.0875 30.2595 63.989 30.769 65.476 29.9105L73.9473 25.0196C75.4344 24.161 75.9439 22.2595 75.0853 20.7725Z"
            fill="#FFD700" />
        <path opacity="0.1"
            d="M60.7725 5.80562L59.2294 4.91471C57.7424 4.05616 55.8409 4.56567 54.9823 6.05272L50.0914 14.524C49.2329 16.0111 49.7424 17.9126 51.2294 18.7711L52.7725 19.662C54.2596 20.5206 56.1611 20.0111 57.0196 18.524L61.9105 10.0527C62.7691 8.56567 62.2596 6.66417 60.7725 5.80562Z"
            fill="#FFD700" />
    </g>
    <defs>
        <clipPath id="clip0_8161_41800">
            <rect width="80" height="80" fill="white" />
        </clipPath>
    </defs>
</svg>