<svg width="25" height="25" viewBox="0 0 25 25" fill="none" xmlns="http://www.w3.org/2000/svg">
<g id="Icon" clip-path="url(#clip0_11146_27740)">
<g id="Vector">
<mask id="path-1-inside-1_11146_27740" fill="white">
<path d="M19.5 8.88494V7.46094C19.5 5.60442 18.7625 3.82394 17.4497 2.51119C16.137 1.19844 14.3565 0.460937 12.5 0.460938C10.6435 0.460937 8.86301 1.19844 7.55025 2.51119C6.2375 3.82394 5.5 5.60442 5.5 7.46094V8.88494C4.60936 9.27364 3.85129 9.91346 3.3185 10.7261C2.78571 11.5388 2.50128 12.4892 2.5 13.4609V19.4609C2.50159 20.7865 3.02888 22.0574 3.96622 22.9947C4.90356 23.9321 6.17441 24.4594 7.5 24.4609H17.5C18.8256 24.4594 20.0964 23.9321 21.0338 22.9947C21.9711 22.0574 22.4984 20.7865 22.5 19.4609V13.4609C22.4987 12.4892 22.2143 11.5388 21.6815 10.7261C21.1487 9.91346 20.3906 9.27364 19.5 8.88494ZM7.5 7.46094C7.5 6.13486 8.02678 4.86309 8.96447 3.9254C9.90215 2.98772 11.1739 2.46094 12.5 2.46094C13.8261 2.46094 15.0979 2.98772 16.0355 3.9254C16.9732 4.86309 17.5 6.13486 17.5 7.46094V8.46094H7.5V7.46094ZM20.5 19.4609C20.5 20.2566 20.1839 21.0196 19.6213 21.5823C19.0587 22.1449 18.2956 22.4609 17.5 22.4609H7.5C6.70435 22.4609 5.94129 22.1449 5.37868 21.5823C4.81607 21.0196 4.5 20.2566 4.5 19.4609V13.4609C4.5 12.6653 4.81607 11.9022 5.37868 11.3396C5.94129 10.777 6.70435 10.4609 7.5 10.4609H17.5C18.2956 10.4609 19.0587 10.777 19.6213 11.3396C20.1839 11.9022 20.5 12.6653 20.5 13.4609V19.4609Z"/>
</mask>
<path d="M19.5 8.88494V7.46094C19.5 5.60442 18.7625 3.82394 17.4497 2.51119C16.137 1.19844 14.3565 0.460937 12.5 0.460938C10.6435 0.460937 8.86301 1.19844 7.55025 2.51119C6.2375 3.82394 5.5 5.60442 5.5 7.46094V8.88494C4.60936 9.27364 3.85129 9.91346 3.3185 10.7261C2.78571 11.5388 2.50128 12.4892 2.5 13.4609V19.4609C2.50159 20.7865 3.02888 22.0574 3.96622 22.9947C4.90356 23.9321 6.17441 24.4594 7.5 24.4609H17.5C18.8256 24.4594 20.0964 23.9321 21.0338 22.9947C21.9711 22.0574 22.4984 20.7865 22.5 19.4609V13.4609C22.4987 12.4892 22.2143 11.5388 21.6815 10.7261C21.1487 9.91346 20.3906 9.27364 19.5 8.88494ZM7.5 7.46094C7.5 6.13486 8.02678 4.86309 8.96447 3.9254C9.90215 2.98772 11.1739 2.46094 12.5 2.46094C13.8261 2.46094 15.0979 2.98772 16.0355 3.9254C16.9732 4.86309 17.5 6.13486 17.5 7.46094V8.46094H7.5V7.46094ZM20.5 19.4609C20.5 20.2566 20.1839 21.0196 19.6213 21.5823C19.0587 22.1449 18.2956 22.4609 17.5 22.4609H7.5C6.70435 22.4609 5.94129 22.1449 5.37868 21.5823C4.81607 21.0196 4.5 20.2566 4.5 19.4609V13.4609C4.5 12.6653 4.81607 11.9022 5.37868 11.3396C5.94129 10.777 6.70435 10.4609 7.5 10.4609H17.5C18.2956 10.4609 19.0587 10.777 19.6213 11.3396C20.1839 11.9022 20.5 12.6653 20.5 13.4609V19.4609Z" fill="black"/>
<path d="M19.5 7.46094H40.8333V7.46094L19.5 7.46094ZM5.5 7.46094L-15.8333 7.46094V7.46094H5.5ZM5.5 8.88494L14.0333 28.4373L26.8333 22.8509V8.88494H5.5ZM2.5 13.4609L-18.8333 13.4329L-18.8333 13.4469V13.4609H2.5ZM2.5 19.4609H-18.8333V19.4737L-18.8333 19.4865L2.5 19.4609ZM7.5 24.4609L7.47445 45.7943L7.48722 45.7943H7.5V24.4609ZM17.5 24.4609V45.7943H17.5128L17.5256 45.7943L17.5 24.4609ZM22.5 19.4609L43.8333 19.4865L43.8333 19.4737V19.4609H22.5ZM22.5 13.4609H43.8333V13.4469L43.8333 13.4329L22.5 13.4609ZM7.5 7.46094H-13.8333H7.5ZM12.5 2.46094V-18.8724V2.46094ZM17.5 8.46094V29.7943H38.8333V8.46094H17.5ZM7.5 8.46094H-13.8333V29.7943H7.5V8.46094ZM20.5 19.4609H41.8333H20.5ZM17.5 22.4609V43.7943V22.4609ZM7.5 22.4609V43.7943V22.4609ZM4.5 19.4609H-16.8333H4.5ZM7.5 10.4609V-10.8724V10.4609ZM20.5 13.4609H41.8333H20.5ZM40.8333 8.88494V7.46094H-1.83333V8.88494H40.8333ZM40.8333 7.46094C40.8333 -0.0535332 37.8482 -7.26023 32.5347 -12.5738L2.3648 17.5961C-0.323217 14.9081 -1.83333 11.2624 -1.83333 7.46094L40.8333 7.46094ZM32.5347 -12.5738C27.2212 -17.8873 20.0145 -20.8724 12.5 -20.8724V21.7943C8.69856 21.7943 5.05282 20.2842 2.3648 17.5961L32.5347 -12.5738ZM12.5 -20.8724C4.98553 -20.8724 -2.22116 -17.8873 -7.53469 -12.5738L22.6352 17.5961C19.9472 20.2842 16.3014 21.7943 12.5 21.7943V-20.8724ZM-7.53469 -12.5738C-12.8482 -7.26022 -15.8333 -0.0535294 -15.8333 7.46094L26.8333 7.46094C26.8333 11.2624 25.3232 14.9081 22.6352 17.5961L-7.53469 -12.5738ZM-15.8333 7.46094V8.88494H26.8333V7.46094H-15.8333ZM-3.03332 -10.6674C-7.72402 -8.62021 -11.7165 -5.2505 -14.5226 -0.970345L21.1596 22.4226C19.4191 25.0774 16.9427 27.1675 14.0333 28.4373L-3.03332 -10.6674ZM-14.5226 -0.970345C-17.3286 3.30981 -18.8266 8.3149 -18.8333 13.4329L23.8333 13.489C23.8291 16.6634 22.9 19.7679 21.1596 22.4226L-14.5226 -0.970345ZM-18.8333 13.4609V19.4609H23.8333V13.4609H-18.8333ZM-18.8333 19.4865C-18.825 26.4612 -16.0506 33.1478 -11.1187 38.0797L19.0512 7.90977C22.1083 10.967 23.8281 15.1119 23.8333 19.4354L-18.8333 19.4865ZM-11.1187 38.0797C-6.18686 43.0115 0.499768 45.7859 7.47445 45.7943L7.52555 3.12762C11.849 3.1328 15.994 4.85259 19.0512 7.90977L-11.1187 38.0797ZM7.5 45.7943H17.5V3.1276H7.5V45.7943ZM17.5256 45.7943C24.5002 45.7859 31.1869 43.0115 36.1187 38.0797L5.94884 7.90977C9.00602 4.85259 13.151 3.1328 17.4744 3.12762L17.5256 45.7943ZM36.1187 38.0797C41.0506 33.1478 43.825 26.4612 43.8333 19.4865L1.16668 19.4354C1.17186 15.1119 2.89165 10.967 5.94884 7.90977L36.1187 38.0797ZM43.8333 19.4609V13.4609H1.16667V19.4609H43.8333ZM43.8333 13.4329C43.8266 8.31491 42.3286 3.30982 39.5226 -0.970345L3.84045 22.4226C2.09999 19.7679 1.17086 16.6634 1.16668 13.489L43.8333 13.4329ZM39.5226 -0.970345C36.7165 -5.2505 32.724 -8.62021 28.0333 -10.6674L10.9667 28.4373C8.05726 27.1675 5.58091 25.0774 3.84045 22.4226L39.5226 -0.970345ZM28.8333 7.46094C28.8333 11.7928 27.1125 15.9473 24.0494 19.0103L-6.12048 -11.1595C-11.0589 -6.22108 -13.8333 0.476903 -13.8333 7.46094H28.8333ZM24.0494 19.0103C20.9863 22.0734 16.8319 23.7943 12.5 23.7943V-18.8724C5.51596 -18.8724 -1.18202 -16.098 -6.12048 -11.1595L24.0494 19.0103ZM12.5 23.7943C8.16813 23.7943 4.01368 22.0734 0.950589 19.0103L31.1205 -11.1595C26.182 -16.098 19.484 -18.8724 12.5 -18.8724V23.7943ZM0.950589 19.0103C-2.11251 15.9473 -3.83333 11.7928 -3.83333 7.46094H38.8333C38.8333 0.476903 36.0589 -6.22108 31.1205 -11.1595L0.950589 19.0103ZM-3.83333 7.46094V8.46094H38.8333V7.46094H-3.83333ZM17.5 -12.8724H7.5V29.7943H17.5V-12.8724ZM28.8333 8.46094V7.46094H-13.8333V8.46094H28.8333ZM-0.833334 19.4609C-0.833334 14.5986 1.0982 9.93549 4.53638 6.49731L34.7063 36.6672C39.2697 32.1038 41.8333 25.9145 41.8333 19.4609H-0.833334ZM4.53638 6.49731C7.97455 3.05914 12.6377 1.1276 17.5 1.1276V43.7943C23.9536 43.7943 30.1429 41.2306 34.7063 36.6672L4.53638 6.49731ZM17.5 1.1276H7.5V43.7943H17.5V1.1276ZM7.5 1.1276C12.3623 1.1276 17.0255 3.05914 20.4636 6.49731L-9.70627 36.6672C-5.14288 41.2306 1.0464 43.7943 7.5 43.7943V1.1276ZM20.4636 6.49731C23.9018 9.93548 25.8333 14.5986 25.8333 19.4609H-16.8333C-16.8333 25.9145 -14.2697 32.1038 -9.70627 36.6672L20.4636 6.49731ZM25.8333 19.4609V13.4609H-16.8333V19.4609H25.8333ZM25.8333 13.4609C25.8333 18.3232 23.9018 22.9864 20.4636 26.4246L-9.70627 -3.74533C-14.2697 0.818058 -16.8333 7.00734 -16.8333 13.4609H25.8333ZM20.4636 26.4246C17.0255 29.8627 12.3623 31.7943 7.5 31.7943V-10.8724C1.0464 -10.8724 -5.14288 -8.30872 -9.70627 -3.74533L20.4636 26.4246ZM7.5 31.7943H17.5V-10.8724H7.5V31.7943ZM17.5 31.7943C12.6377 31.7943 7.97455 29.8627 4.53638 26.4246L34.7063 -3.74533C30.1429 -8.30872 23.9536 -10.8724 17.5 -10.8724V31.7943ZM4.53638 26.4246C1.0982 22.9864 -0.833334 18.3232 -0.833334 13.4609H41.8333C41.8333 7.00735 39.2697 0.818064 34.7063 -3.74533L4.53638 26.4246ZM-0.833334 13.4609V19.4609H41.8333V13.4609H-0.833334Z" fill="black" mask="url(#path-1-inside-1_11146_27740)"/>
</g>
<path id="Vector_2" d="M12.5 14.4609C12.2348 14.4609 11.9804 14.5663 11.7929 14.7538C11.6054 14.9414 11.5 15.1957 11.5 15.4609V17.4609C11.5 17.7261 11.6054 17.9805 11.7929 18.168C11.9804 18.3556 12.2348 18.4609 12.5 18.4609C12.7652 18.4609 13.0196 18.3556 13.2071 18.168C13.3947 17.9805 13.5 17.7261 13.5 17.4609V15.4609C13.5 15.1957 13.3947 14.9414 13.2071 14.7538C13.0196 14.5663 12.7652 14.4609 12.5 14.4609Z" fill="black"/>
</g>
<defs>
<clipPath id="clip0_11146_27740">
<rect width="24" height="24" fill="white" transform="translate(0.5 0.460938)"/>
</clipPath>
</defs>
</svg>
